<svg width="1280" height="720" viewBox="0 0 1280 720" fill="none" xmlns="http://www.w3.org/2000/svg">
<g clip-path="url(#clip0_61_3083)">
<rect width="1280" height="720" fill="#1C2C4F"/>
<path d="M-765.492 792L-729.002 753.476C-687.277 742.57 -364.693 578.869 -305.992 556.856C-247.291 535.093 -246.36 463.196 -174.492 476C297.008 560 -1528.99 142 -1321.49 91.5C-1245.99 73.1253 -344.37 320.54 -305.992 255C-280.132 233.337 -340.62 225.513 -263.992 203.5C-188.316 181.887 -451.5 166.46 -115.5 192C-57 202.5 295.5 309.696 309 206.5C322.5 103.304 600.531 296.102 614.5 162C622 90 546.384 49.5132 521 28C495.616 6.08657 389.677 -75.9865 330.5 -98C270.689 -119.863 146.5 70 -8.5 -84.5L6.50806 -116L1068.51 -1.5V43.9417C1068.51 54.8483 1068.51 76.5616 1068.51 98.5751C1068.51 120.338 1068.51 142.102 1068.51 164.115C1068.51 185.879 1068.51 207.642 1068.51 229.655C1068.51 251.369 1068.51 273.182 1068.51 295.196C1068.51 316.859 1068.51 338.722 1068.51 360.736C1068.51 382.349 1068.51 404.262 1068.51 425.776C1068.51 447.839 1068.51 469.803 1068.51 491.316C1068.51 513.329 1068.51 535.343 1068.51 556.856C1068.51 578.819 1068.51 600.883 1068.51 622.396C1068.51 644.31 1068.51 665.923 1068.51 687.936C1068.51 709.8 1068.51 731.463 1068.51 742.47V753.476L-765.492 792Z" fill="#133A5B"/>
<path d="M-694.492 850L-658.002 811.476C-616.277 800.57 -293.693 636.869 -234.992 614.856C-176.291 593.093 -175.36 521.196 -103.492 534C368.008 618 -1457.99 200 -1250.49 149.5C-1174.99 131.125 -273.37 378.54 -234.992 313C-209.132 291.337 -269.62 283.513 -192.992 261.5C-117.316 239.887 -380.5 224.46 -44.5 250C14 260.5 183 282 250.5 303C318 324 735.008 593 710.008 303C705.515 250.877 883.884 232.013 858.5 210.5C833.116 188.587 794.185 178.589 735.008 156.575C675.197 134.712 744 80 589 -74.5L77.5081 -58L1139.51 56.5V101.942C1139.51 112.848 1139.51 134.562 1139.51 156.575C1139.51 178.338 1139.51 200.102 1139.51 222.115C1139.51 243.879 1139.51 265.642 1139.51 287.655C1139.51 309.369 1139.51 331.182 1139.51 353.196C1139.51 374.859 1139.51 396.722 1139.51 418.736C1139.51 440.349 1139.51 462.262 1139.51 483.776C1139.51 505.839 1139.51 527.803 1139.51 549.316C1139.51 571.329 1139.51 593.343 1139.51 614.856C1139.51 636.819 1139.51 658.883 1139.51 680.396C1139.51 702.31 1139.51 723.923 1139.51 745.936C1139.51 767.8 1139.51 789.463 1139.51 800.47V811.476L-694.492 850Z" fill="#1E293B"/>
<path d="M-668 850L-631.51 811.476C-589.785 800.57 -267.201 636.869 -208.5 614.856C-149.799 593.093 -148.869 521.196 -77.0001 534C394.5 618 -1431.5 200 -1224 149.5C-1148.5 131.125 -246.878 378.54 -208.5 313C-182.64 291.337 -243.128 283.513 -166.5 261.5C-90.8237 239.887 -146.5 287.655 189.5 313.196C248 323.696 303 332.196 370.5 353.196C438 374.196 761.5 593 736.5 303C732.007 250.877 829.384 199.013 804 177.5C778.616 155.587 820.677 178.589 761.5 156.575C701.689 134.712 692.5 5.44938 469.5 -38L104 -58L1166 56.5V101.942C1166 112.848 1166 134.562 1166 156.575C1166 178.338 1166 200.102 1166 222.115C1166 243.879 1166 265.642 1166 287.655C1166 309.369 1166 331.182 1166 353.196C1166 374.859 1166 396.722 1166 418.736C1166 440.349 1166 462.262 1166 483.776C1166 505.839 1166 527.803 1166 549.316C1166 571.329 1166 593.343 1166 614.856C1166 636.819 1166 658.883 1166 680.396C1166 702.31 1166 723.923 1166 745.936C1166 767.8 1166 789.463 1166 800.47V811.476L-668 850Z" fill="#133A5B"/>
<path d="M-637 768L-600.51 729.476C-558.785 718.57 -236.2 554.869 -177.5 532.856C-118.799 511.093 -117.868 439.196 -45.9998 452C425.5 536 245.5 569.5 453 519C528.5 500.625 695.122 517.54 733.5 452C759.36 430.337 715.872 369.513 792.5 347.5C868.177 325.887 871 336.736 915 347.5C973.5 358 1015 328.804 1033 300C1051 271.196 1033 140.115 934 116C892.856 105.978 686.384 60.0132 661 38.5C635.616 16.5866 400.677 -27.9865 341.5 -50C400.5 -91.5751 128.927 -48.4933 94.5002 -59.5L80.0002 -116L1197 -25.5V19.9417C1197 30.8483 1197 52.5616 1197 74.5751C1197 96.3385 1197 118.102 1197 140.115C1197 161.879 1197 183.642 1197 205.655C1197 227.369 1197 249.182 1197 271.196C1197 292.859 1197 314.722 1197 336.736C1197 358.349 1197 380.262 1197 401.776C1197 423.839 1197 445.803 1197 467.316C1197 489.329 1197 511.343 1197 532.856C1197 554.819 1197 576.883 1197 598.396C1197 620.31 1197 641.923 1197 663.936C1197 685.8 1197 707.463 1197 718.47V729.476L-637 768Z" fill="#90CDF4"/>
<path d="M-622 806L-585.51 767.476C-543.785 756.57 -221.2 592.869 -162.5 570.856C-103.799 549.093 -102.868 477.196 -30.9998 490C440.5 574 260.5 607.5 468 557C543.5 538.625 710.122 555.54 748.5 490C774.36 468.337 730.872 407.513 807.5 385.5C883.177 363.887 1191.57 396.249 1199.5 374.736C1207.43 352.672 900.512 433.5 1119.5 356C1093.51 266.655 1164.16 245.513 1180.5 224C1197.48 202.037 1168.38 153.013 1143 131.5C1117.62 109.587 866.677 104.013 807.5 82C747.689 60.1366 442.427 -32.9933 408 -44L95.0002 -78L1212 12.5V57.9417C1212 68.8483 1212 90.5616 1212 112.575C1212 134.338 1212 156.102 1212 178.115C1212 199.879 1212 221.642 1212 243.655C1212 265.369 1212 287.182 1212 309.196C1212 330.859 1212 352.722 1212 374.736C1212 396.349 1212 418.262 1212 439.776C1212 461.839 1212 483.803 1212 505.316C1212 527.329 1212 549.343 1212 570.856C1212 592.819 1212 614.883 1212 636.396C1212 658.31 1212 679.923 1212 701.936C1212 723.8 1212 745.463 1212 756.47V767.476L-622 806Z" fill="#1E293B"/>
<path d="M-572 806L-535.51 767.476C-493.785 756.57 -171.2 592.869 -112.5 570.856C-53.7991 549.093 -10.3681 519.196 61.5002 532C533 616 445 582.5 652.5 532C728 513.625 718.622 505.316 757 439.776C782.86 418.112 780.872 407.513 857.5 385.5C933.177 363.887 1127.15 384.013 1135.08 362.5C1143.01 340.436 1127.15 330.709 1109.7 309.196C1092.24 287.182 1127.15 265.169 1143.49 243.655C1160.46 221.692 1160.46 199.628 1135.08 178.115C1109.7 156.202 1058.93 134.589 999.751 112.575C939.94 90.7117 442.427 -9.99326 408 -21L44.5002 -46.5L1262 12.5V57.9417C1262 68.8483 1262 90.5616 1262 112.575C1262 134.338 1262 156.102 1262 178.115C1262 199.879 1262 221.642 1262 243.655C1262 265.369 1262 287.182 1262 309.196C1262 330.859 1262 352.722 1262 374.736C1262 396.349 1262 418.262 1262 439.776C1262 461.839 1262 483.803 1262 505.316C1262 527.329 1262 549.343 1262 570.856C1262 592.819 1262 614.883 1262 636.396C1262 658.31 1262 679.923 1262 701.936C1262 723.8 1262 745.463 1262 756.47V767.476L-572 806Z" fill="#90CDF4"/>
<path d="M-528 816L-491.51 777.476C-449.785 766.57 109.5 597 266.5 666C341.31 698.878 545.5 549 883 563.5C1151 508.267 1149.18 537.329 1073.5 515.316C1036 597 774 502.5 837 469C949.348 409.259 1066.37 406.749 1143 384.736C1218.68 363.123 1221.92 406.249 1229.85 384.736C1237.78 362.672 1216.95 352.513 1199.5 331C1182.05 308.987 1171.15 275.169 1187.49 253.655C1204.46 231.692 1224.88 209.628 1199.5 188.115C1174.12 166.202 1018.21 72.0135 959.031 50C899.22 28.1366 584.5 30 423.5 -36L124 -36L1306 22.5V67.9417C1306 78.8483 1306 100.562 1306 122.575C1306 144.338 1306 166.102 1306 188.115C1306 209.879 1306 231.642 1306 253.655C1306 275.369 1306 297.182 1306 319.196C1306 340.859 1306 362.722 1306 384.736C1306 406.349 1306 428.262 1306 449.776C1306 471.839 1306 493.803 1306 515.316C1306 537.329 1306 559.343 1306 580.856C1306 602.819 1306 624.883 1306 646.396C1306 668.31 1306 689.923 1306 711.936C1306 733.8 1306 755.463 1306 766.47V777.476L-528 816Z" fill="#1E293B"/>
<path d="M-528 768L-491.51 729.476C-449.785 718.57 261.287 663.936 319.987 641.923C378.688 620.159 813.866 588.39 762.622 566.376C712.33 544.613 1034.71 554.869 959.031 532.856C882.403 511.143 866.538 489.329 891.446 467.316C917.306 445.652 983.94 423.789 1060.57 401.776C1136.24 380.162 1221.92 358.249 1229.85 336.736C1237.78 314.672 1171.15 292.709 1153.7 271.196C1136.24 249.182 1171.15 227.169 1187.49 205.655C1204.46 183.692 1204.46 161.628 1179.08 140.115C1153.7 118.202 1102.93 96.5886 1043.75 74.5751C983.94 52.7117 532.927 -36.9933 498.5 -48L34.4163 -48L1306 -25.5V19.9417C1306 30.8483 1306 52.5616 1306 74.5751C1306 96.3385 1306 118.102 1306 140.115C1306 161.879 1306 183.642 1306 205.655C1306 227.369 1306 249.182 1306 271.196C1306 292.859 1306 314.722 1306 336.736C1306 358.349 1306 380.262 1306 401.776C1306 423.839 1306 445.803 1306 467.316C1306 489.329 1306 511.343 1306 532.856C1306 554.819 1306 576.883 1306 598.396C1306 620.31 1306 641.923 1306 663.936C1306 685.8 1306 707.463 1306 718.47V729.476L-528 768Z" fill="#111827"/>
</g>
<defs>
<clipPath id="clip0_61_3083">
<rect width="1280" height="720" fill="white"/>
</clipPath>
</defs>
</svg>
