<svg width="1280" height="720" viewBox="0 0 1280 720" fill="none" xmlns="http://www.w3.org/2000/svg">
<g clip-path="url(#clip0_8_2511)">
<rect width="1280" height="720" fill="#0891B2"/>
<path d="M-56 360.605L-28.5 -111C75.5 89 100.612 45.8538 178 42.5C255.388 39.1462 389.438 85.7876 493.5 95.5C663.5 141.5 1075.83 30.6211 1168.5 24.5C1261.17 18.3789 1309.1 58.1154 1383.5 42.5C1415 35.889 1291 -15.5 1438.5 -72.5L1282 360.605L620 437L-56 360.605Z" fill="#E0F2FE"/>
<path d="M-26 387.605L-122 -127C-18 73 167.5 32 233.5 37.5C310.888 34.1462 589.438 72.7876 693.5 82.5C863.5 128.5 1006.33 30.6211 1099 24.5C1191.67 18.3789 1314.1 63.1154 1388.5 47.5C1420 40.889 1321 11.5 1468.5 -45.5L1312 387.605L650 464L-26 387.605Z" fill="#0891B2"/>
<path d="M-55.5 547.605L-28 76C76 276 101.112 232.854 178.5 229.5C255.888 226.146 495.938 465.288 600 475C770 521 1009.83 198.621 1102.5 192.5C1195.17 186.379 1284.6 223.115 1359 207.5C1390.5 200.889 1291.5 171.5 1439 114.5L1282.5 547.605L620.5 624L-55.5 547.605Z" fill="#22D3EE"/>
<path d="M-31.5 467.605L-48 99.9999C40 213 208.612 393.854 286 390.5C363.388 387.146 426.438 416.788 530.5 426.5C700.5 472.5 933.832 258.621 1026.5 252.5C1119.17 246.379 1106.6 360.615 1181 345C1255.4 329.384 1201.5 379.32 1306.5 227.5V467.605L644.5 544L-31.5 467.605Z" fill="#E0F2FE"/>
<path d="M-31.5 506.605L-45 155C44.0666 166.806 209.612 415.354 287 412C364.388 408.646 494.938 402.288 599 412C769 458 930.332 282.121 1023 276C1115.67 269.879 1098.1 353.115 1172.5 337.5C1246.9 321.885 1230 337.5 1306.5 266.5V506.605L644.5 583L-31.5 506.605Z" fill="#22D3EE"/>
<path d="M-42 611.105L-55.5 259.5C33.5666 271.306 199.112 519.854 276.5 516.5C353.888 513.146 393.438 563.392 497.5 573.105C667.5 619.105 829.332 438.121 922 432C1014.67 425.879 1096.1 504.115 1170.5 488.5C1244.9 472.885 1191 522.82 1296 371V611.105L634 687.5L-42 611.105Z" fill="#BAE6FD"/>
<path d="M-45 660L-12.5 276.895C76.5666 288.701 160.112 532.854 237.5 529.5C314.888 526.146 390.438 612.288 494.5 622C664.5 668 707.332 645.121 800 639C892.668 632.879 1047.1 484.115 1121.5 468.5C1195.9 452.885 1220 528.32 1325 376.5L1293 660H-45Z" fill="#E0F2FE"/>
<path d="M-45 688L-12.5 335C76.5666 346.806 140.112 517.131 217.5 513.778C294.888 510.424 330.292 613.258 434.354 622.97C538.416 632.683 625.832 653.621 718.5 647.5C811.168 641.379 1039.6 529.393 1114 513.778C1188.4 498.162 1220 556.32 1325 404.5L1293 688H-45Z" fill="#BAE6FD"/>
<path d="M-50 720L24 445.5C113.067 457.306 262.112 638.854 339.5 635.5C416.888 632.146 330.938 656.288 435 666C539.062 675.712 868.478 691.651 961.146 685.53C1053.81 679.409 1096.6 575.615 1171 560C1245.4 544.385 1215 588.32 1320 436.5L1288 720H-50Z" fill="#E0F2FE"/>
<path d="M-13 786V420.694C81.2115 410.978 52.475 506.129 169.756 530.286C254.033 531.692 308.688 653.646 389.469 661.896C470.249 670.145 565.005 686.773 651.706 688.418C738.408 690.063 900.249 665.288 988.363 661.896C1076.48 658.504 1192.96 536.389 1283 530.286V786H-13Z" fill="#FACC15"/>
</g>
<defs>
<clipPath id="clip0_8_2511">
<rect width="1280" height="720" fill="white"/>
</clipPath>
</defs>
</svg>
