<svg width="1280" height="720" viewBox="0 0 1280 720" fill="none" xmlns="http://www.w3.org/2000/svg">
<g clip-path="url(#clip0_61_2718)">
<rect width="1280" height="720" fill="#1C2C4F"/>
<path d="M-19.5003 432.381C-181.255 312.52 -62.4272 56.7658 -105.637 3H1208.86V745.381H1065.9C623.234 706.091 607.907 745.792 700.5 672.381C647.5 602.881 170 726.001 108 648C51.7037 577.174 90.9998 514.262 -19.5003 432.381Z" fill="#1E293B"/>
<path d="M7.36287 438.881C-154.392 319.02 -8.42709 104.766 -51.637 51H1262.86V793.381H1119.9C677.233 754.091 479.77 793.792 572.363 720.381C519.363 650.881 171.863 756.883 109.863 678.881C53.5667 608.055 117.863 520.762 7.36287 438.881Z" fill="#1C2C4F"/>
<path d="M24.4998 385.5C-137.255 265.639 8.70988 51.3847 -34.5 -2.3811H1280V740C837.333 700.71 660 834 611.5 710.5C581.065 633 189 703.502 127 625.5C70.7036 554.674 135 467.381 24.4998 385.5Z" fill="#133A5B"/>
<path d="M-60 -18.5256C-43.7465 -30.4499 -32.24 -29.182 -23.5855 -18.5256L1291 -18.5256V701.475H1121.69C1334.86 701.475 885.841 665.672 995.5 594.474C1059.54 544.502 1040 436.474 638 450.974C236 465.474 245.5 370.751 184.5 375.974C-15.8455 393.13 24.7346 40.9714 -23.5855 -18.5256H-60Z" fill="#1E293B"/>
<path d="M77.5 293.5C-17.7692 139.098 8.70987 51.3845 -34.5 -2.38123H1280V740H1137.04C694.37 700.71 588.907 710.411 681.5 637C628.5 567.5 153.576 612.184 199 523.5C220 482.5 121 364 77.5 293.5Z" fill="#133A5B"/>
<path d="M445 198C310.362 218.857 260.167 51.3847 231 -2.38109L1001 -2.3811V740H904.5C1026 740 734 683.411 796.5 610C833 558.475 606.5 535 796.5 404C986.5 273 877.5 131 445 198Z" fill="#1E293B"/>
<path d="M382.5 175C246.9 188.235 214.167 49.7658 185 -4L1049 -0.38115V742H952.5C653.7 702.71 704 546.065 766.5 472.654C803 421.129 901.35 323.001 859.5 245C821.5 174.174 552 158.457 382.5 175Z" fill="#90CDF4"/>
<path d="M461.5 120C325.9 133.235 286.167 52.7658 257 -1L1121 2.61885V745H1024.5C727.933 706.003 841.27 572.92 904.09 499.156L905.5 497.5C942 445.974 983.85 347.501 942 269.5C904 198.674 631 103.457 461.5 120Z" fill="#1E293B"/>
<path d="M495.5 181C359.9 194.235 327.167 55.7658 298 2L1162 5.61885V748H1065.5C766.7 708.71 817 552.065 879.5 478.654C916 427.129 1014.35 329.001 972.5 251C934.5 180.174 665 164.457 495.5 181Z" fill="#90CDF4"/>
<path d="M644.5 141.5C508.9 154.735 403.166 52.7658 374 -1L1238 2.61885V745H1141.5C842.7 705.71 893 549.065 955.5 475.654C992 424.129 1100.85 347.501 1059 269.5C1021 198.674 814 124.957 644.5 141.5Z" fill="#1E293B"/>
<path d="M673 135.679C537.4 148.541 445.167 47.2523 416 -5L1280 -1.48302V720H1183.5C884.7 681.816 935 529.581 997.5 458.236C1034 408.161 1121.85 276.8 1080 200.994C1042 132.162 842.5 119.602 673 135.679Z" fill="#111827"/>
</g>
<defs>
<clipPath id="clip0_61_2718">
<rect width="1280" height="720" fill="white"/>
</clipPath>
</defs>
</svg>
