<svg width="1280" height="720" viewBox="0 0 1280 720" fill="none" xmlns="http://www.w3.org/2000/svg">
<g clip-path="url(#clip0_1_25)">
<rect width="1280" height="720" fill="#009CAD"/>
<path d="M-19.5001 432.381C-181.255 312.52 -62.4271 56.7658 -105.637 3H1208.86V745.381H1065.9C623.234 706.091 607.908 745.792 700.5 672.381C647.5 602.881 170 726.001 108 648C51.7038 577.174 90.9999 514.262 -19.5001 432.381Z" fill="#F7FAFC"/>
<path d="M7.36287 438.881C-154.392 319.02 -8.42709 104.766 -51.637 51H1262.86V793.381H1119.9C677.233 754.091 479.77 793.792 572.363 720.381C519.363 650.881 171.863 756.883 109.863 678.881C53.5667 608.055 117.863 520.762 7.36287 438.881Z" fill="#009CAD"/>
<path d="M24.4998 385.5C-137.255 265.638 8.70988 51.3846 -34.5 -2.38116H1280V740C837.333 700.71 660 834 611.5 710.5C581.065 633 189 703.501 127 625.5C70.7036 554.674 135 467.381 24.4998 385.5Z" fill="#70DEE6"/>
<path d="M-59.9999 -19.5256C-43.7464 -31.4499 -32.2399 -30.182 -23.5854 -19.5256L1291 -19.5256V700.475H1121.69C1334.86 700.475 885.841 664.672 995.5 593.474C1059.54 543.502 1040 435.474 638 449.974C236 464.474 245.5 369.751 184.5 374.974C-15.8454 392.13 24.7347 39.9714 -23.5854 -19.5256H-59.9999Z" fill="#F7FAFC"/>
<path d="M77.5 293.5C-17.7692 139.098 8.70987 51.3846 -34.5 -2.38116H1280V740H1137.04C694.37 700.71 588.907 710.411 681.5 637C628.5 567.5 153.576 612.184 199 523.5C220 482.5 121 364 77.5 293.5Z" fill="#70DEE6"/>
<path d="M445 198C310.362 218.857 260.167 51.3846 231 -2.38115L1001 -2.38116V740H904.5C1026 740 734 683.411 796.5 610C833 558.474 606.5 535 796.5 404C986.5 273 877.5 131 445 198Z" fill="#F7FAFC"/>
<path d="M382.5 175C246.9 188.235 214.167 49.7658 185 -4L1049 -0.38115V742H952.5C653.7 702.71 704 546.065 766.5 472.654C803 421.129 901.35 323.001 859.5 245C821.5 174.174 552 158.457 382.5 175Z" fill="#C1FEF8"/>
<path d="M461.5 120C325.9 133.235 286.167 52.7658 257 -1L1121 2.61885V745H1024.5C727.933 706.003 841.27 572.92 904.09 499.156L905.5 497.5C942 445.974 983.85 347.501 942 269.5C904 198.674 631 103.457 461.5 120Z" fill="#F7FAFC"/>
<path d="M476 154C340.4 167.235 327.167 55.7658 298 2L1162 5.61885V748H1065.5C766.7 708.71 817 552.065 879.5 478.654C916 427.129 1014.35 329.001 972.5 251C934.5 180.174 645.5 137.457 476 154Z" fill="#C1FEF8"/>
<path d="M644.5 141.5C508.9 154.735 403.167 52.7658 374 -1L1238 2.61885V745H1141.5C842.7 705.71 893 549.065 955.5 475.654C992 424.129 1100.85 347.501 1059 269.5C1021 198.674 814 124.957 644.5 141.5Z" fill="#F7FAFC"/>
<path d="M672.5 139C536.9 151.8 444.667 51 415.5 -1L1279.5 2.5V720.5H1183C884.2 682.5 934.5 531 997 460C1033.5 410.167 1121.35 279.44 1079.5 204C1041.5 135.5 842 123 672.5 139Z" fill="#FEE551"/>
<g clip-path="url(#clip1_1_25)">
<path d="M1451.26 1489.95L1430.58 1480.36C1409.44 1471.21 1368.8 1451.37 1326.98 1432.63C1285.17 1413.89 1457.51 1452.09 1465.5 1386.5C1474.19 1320.25 1318.53 1150.21 1333.52 1078.03C1348.04 1006.3 1405.77 1025.46 1326.98 1041.5C1248.66 1057.1 1461.65 1055.08 1414.35 1041.5C1366.36 1028.58 1153.5 1059 1036.5 930C955.625 840.834 747.56 770.938 693.733 763.5C639.906 756.062 623.97 734.611 607 692.5C590.497 649.95 584.841 658.106 587 598C588.692 538.333 735.546 479.075 714.406 469.924L693.733 460.335L805.704 355L820.196 370.405C834.688 385.809 863.671 416.619 892.654 447.428C921.637 478.237 950.62 509.047 979.604 539.856C1008.59 570.665 1037.57 601.475 1066.55 632.284C1095.54 663.093 1124.52 693.903 1153.5 724.712C1182.49 755.521 1211.47 786.331 1240.45 817.14C1269.44 847.949 1298.42 878.759 1327.4 909.568C1356.39 940.377 1385.37 971.187 1414.35 1002C1443.34 1032.81 1472.32 1063.61 1501.3 1094.42C1530.28 1125.23 1559.27 1156.04 1588.25 1186.85C1617.23 1217.66 1646.22 1248.47 1660.71 1263.88L1675.2 1279.28L1451.26 1489.95Z" fill="#70DEE6"/>
<path d="M1366.5 1050.5L1345 1030C1338.07 1019.74 1329.23 1027.55 1345 987C1360.77 946.449 1275.28 949.989 1286.13 912.756C1296.62 875.773 1304.47 919.695 1270.5 912.756C1236.9 905.566 1231.41 886.584 1183 889.409C1134.22 892.485 1131.65 874.834 1117.5 854.5C1103.91 833.791 1008.5 866.5 980.062 817.5C964.392 790.5 948.693 722.285 905.188 721.792C842 721.078 818.178 720.808 838.853 676.94C859.899 632.821 944.198 545.953 980.062 491.82C1015.56 437.937 1001.69 417.416 994.751 407.155C1001.69 417.416 1015.56 437.937 1029.42 458.459C1043.29 478.98 1057.16 499.502 1071.03 520.023C1084.9 540.545 1098.77 561.066 1112.64 581.587C1126.51 602.109 1140.38 622.63 1154.25 643.152C1168.12 663.673 1181.99 684.195 1195.86 704.716C1209.72 725.237 1223.59 745.759 1237.46 766.28C1251.33 786.802 1265.2 807.323 1279.07 827.845C1292.94 848.366 1306.81 868.888 1320.68 889.409C1334.55 909.931 1348.42 930.452 1362.29 950.973C1376.16 971.495 1390.03 992.016 1396.96 1002.28L1403.89 1012.54L1366.5 1050.5Z" fill="#C1FEF8"/>
<path d="M1609.54 1103.68L1597.98 1094.85C1586.43 1086.02 1563.31 1068.36 1520.77 1076.13C1478.23 1083.89 1416.26 1117.09 1393.15 1099.43C1370.03 1081.76 1385.78 1013.25 1385.31 965.95C1385.09 918.333 1368.05 892.727 1338.68 883.25C1309.07 874.091 1311.76 871.273 1266 883.25C1220 895.545 1141.58 894.634 1121.5 873C1101.42 851.366 1155.36 790.447 1138.5 764.602C1121.88 738.439 1019.65 773.761 990.04 764.602C960.674 755.125 943.632 729.518 917.483 715.83C891.334 702.142 854.863 701.962 837.053 701.316L819 700.987L955.002 523L966.558 531.83C978.115 540.661 1001.23 558.322 1024.34 575.983C1047.45 593.644 1070.57 611.305 1093.68 628.966C1116.79 646.627 1139.91 664.288 1163.02 681.949C1186.13 699.61 1209.25 717.271 1232.36 734.932C1255.47 752.593 1278.59 770.254 1301.7 787.915C1324.81 805.576 1347.93 823.237 1371.04 840.898C1394.15 858.559 1417.27 876.22 1440.38 893.881C1463.49 911.542 1486.61 929.203 1509.72 946.864C1532.83 964.525 1555.95 982.186 1579.06 999.848C1602.17 1017.51 1625.29 1035.17 1636.84 1044L1648.4 1052.83L1609.54 1103.68Z" fill="#F7FAFC"/>
<path d="M1353.08 1153.71L1346.36 1143.77C1339.64 1133.83 1326.2 1113.94 1342.4 1074.03C1358.6 1034.12 1404.43 974.173 1415.72 937.577C1426.64 901.231 1403.94 887.605 1370.4 881.303C1337.23 874.75 1294.16 874.895 1246.18 878.357C1197.82 882.07 1145.49 888.473 1131.77 868.776C1118.61 848.704 1095.16 801.952 1087 778.5C1078.47 755.298 1084.3 756.022 1041.23 756.166C998.152 756.311 910.394 718.846 931.5 675.615C952.976 632.134 1082.39 583.511 1118.68 530.015C1154.61 476.769 1141.17 456.885 1134.45 446.942C1141.17 456.885 1154.61 476.769 1168.05 496.654C1181.48 516.538 1194.92 536.423 1208.36 556.308C1221.8 576.192 1235.24 596.077 1248.68 615.961C1262.12 635.846 1275.56 655.731 1289 675.615C1302.43 695.5 1315.87 715.384 1329.31 735.269C1342.75 755.153 1356.19 775.038 1369.63 794.923C1383.07 814.807 1396.51 834.692 1409.95 854.576C1423.38 874.461 1436.82 894.346 1450.26 914.23C1463.7 934.115 1477.14 953.999 1490.58 973.884C1504.02 993.769 1517.46 1013.65 1524.18 1023.6L1530.9 1033.54L1353.08 1153.71Z" fill="#C1FEF8"/>
<path d="M1426.68 1057.5L1419.96 1047.56C1413.24 1037.62 1399.81 1017.73 1416 977.817C1432.2 937.903 1478.03 877.96 1489.32 841.364C1500.24 805.017 1477.54 791.392 1444 785.09C1410.84 778.537 1367.76 778.682 1319.78 782.144C1271.43 785.856 1189.5 792 890.5 659.953C877.339 639.88 1037.66 683.405 1029.5 659.953C1020.97 636.751 1157.91 659.808 1114.83 659.953C1071.76 660.097 1028.68 660.242 1049.79 617.011C1071.26 573.529 1155.99 487.298 1192.29 433.802C1228.21 380.556 1214.77 360.671 1208.05 350.729C1214.77 360.671 1228.21 380.556 1241.65 400.44C1255.09 420.325 1268.53 440.21 1281.97 460.094C1295.41 479.979 1308.84 499.863 1322.28 519.748C1335.72 539.633 1349.16 559.517 1362.6 579.402C1376.04 599.286 1389.48 619.171 1402.92 639.056C1416.36 658.94 1429.79 678.825 1443.23 698.709C1456.67 718.594 1470.11 738.479 1483.55 758.363C1496.99 778.248 1510.43 798.132 1523.87 818.017C1537.31 837.902 1550.74 857.786 1564.18 877.671C1577.62 897.555 1591.06 917.44 1597.78 927.382L1604.5 937.325L1426.68 1057.5Z" fill="#F7FAFC"/>
</g>
</g>
<defs>
<clipPath id="clip0_1_25">
<rect width="1280" height="720" fill="white"/>
</clipPath>
<clipPath id="clip1_1_25">
<rect width="720" height="873" fill="white" transform="translate(410 1439) rotate(-90)"/>
</clipPath>
</defs>
</svg>
