<svg width="1280" height="720" viewBox="0 0 1280 720" fill="none" xmlns="http://www.w3.org/2000/svg">
<g clip-path="url(#clip0_8_6206)">
<rect width="1280" height="720" fill="#0891B2"/>
<path d="M1109.3 1099.79L1032.69 1085.41C1045.09 993.063 1016.95 986.677 1033 905C1049.05 823.322 1117.5 682 1128.07 588.701C1146.84 511.048 1164.69 426.752 1181.3 342.744C1197.9 258.735 1204.11 63.344 1218.5 -22.5002C1232.89 -108.344 1255.48 -84.6421 1268.89 -172.609L1345.5 -158.226L1109.3 1099.79Z" fill="#22D3EE"/>
<path d="M1144.3 1099.79L1067.69 1085.41C1080.09 993.063 1044.86 956.842 1060.91 875.165C1076.96 793.488 1144.29 666.353 1163.07 588.701C1181.84 511.049 1199.69 426.753 1216.3 342.744C1232.9 258.735 1248.28 175.013 1262.67 89.1692C1277.07 3.32499 1290.48 -84.6419 1303.89 -172.609L1380.5 -158.226L1144.3 1099.79Z" fill="#BAE6FD"/>
<path d="M1177.3 1108.79L1100.69 1094.41C1113.09 1002.06 1077.86 965.842 1093.91 884.165C1109.96 802.488 1177.29 675.353 1196.07 597.701C1214.84 520.049 1232.69 435.753 1249.3 351.744C1265.9 267.735 1281.28 184.013 1295.67 98.1692C1310.07 12.325 1323.48 -75.6419 1336.89 -163.609L1413.5 -149.226L1177.3 1108.79Z" fill="#E0F2FE"/>
<path d="M1215.01 1094.13L1121.59 1076.59C1132.94 984.043 1088.8 946.149 1105 864.5C1121.2 782.851 1197.75 657.447 1217.41 579.962C1237.08 502.477 1255.35 418.261 1272.14 334.286C1288.93 250.31 1304.23 166.575 1318.25 80.6619C1332.28 -5.25105 1345.04 -93.3415 1357.79 -181.432L1451.21 -163.892L1215.01 1094.13Z" fill="#FACC15"/>
</g>
<defs>
<clipPath id="clip0_8_6206">
<rect width="1280" height="720" fill="white"/>
</clipPath>
</defs>
</svg>
