<svg width="1280" height="720" viewBox="0 0 1280 720" fill="none" xmlns="http://www.w3.org/2000/svg">
<g clip-path="url(#clip0_61_2884)">
<rect width="1280" height="720" fill="#1C2C4F"/>
<path d="M106.24 774.542L67.7396 817.467C91.1433 803.6 24.9477 801.311 67.7396 769.525C110.48 737.241 -2.79956 801.604 39.7209 769.525C82.7331 737.535 -303.15 631.197 -256.76 603.303C-210.151 575.206 -78.6514 268.887 -25 248.852C28.6002 228.319 143.76 297.963 202.76 335.548C450.76 493.533 504.373 438.751 543.5 403C582.44 366.604 653.493 423.174 688.548 383.015C724.094 342.948 1199.9 302.792 1206.24 231.569C1212.81 160.142 1526.5 35.0515 1385.5 -110L1370.5 -74.5003L1356 76.9999L1284.74 152.589C1265.21 170.643 1245.16 195.597 1206.24 231.569C1240.74 341.799 986.562 445.995 947.639 481.967C908.495 518.142 917.663 610.495 878.74 646.467C839.596 682.642 570.663 598.995 531.74 634.967C492.596 671.142 418.65 629.975 379.726 665.947C340.583 702.123 301.145 738.57 262.222 774.542C223.079 810.717 232.163 763.495 193.239 799.467C154.096 835.643 198.163 781.495 159.239 817.467C120.096 853.643 178.334 751.878 159.239 769.525L106.239 835.967L106.24 774.542Z" fill="#133A5B"/>
<path d="M94.8348 690.831L56.3347 733.757C79.7385 719.889 13.5429 717.6 56.3348 685.814C99.0755 653.531 -14.2044 717.894 28.316 685.814C71.3283 653.825 -314.554 547.486 -268.165 519.592C-221.556 491.495 -502.151 -32.9645 -448.5 -53C-394.9 -73.5328 -279.74 -3.88829 -220.74 33.6967C27.26 191.681 219.873 276.252 259 240.5C297.94 204.104 576.946 336.658 612 296.5C647.546 256.432 1434.65 42.2233 1441 -28.9999C1447.56 -100.427 1515.1 -48.6593 1374.1 -193.711L1359.1 -158.211L1344.59 -6.71101L1441 165.141C1421.46 183.195 1479.92 -64.9719 1441 -28.9999C1475.5 81.2301 975.157 362.284 936.234 398.256C897.09 434.431 906.258 526.784 867.335 562.756C828.191 598.931 559.258 515.284 520.335 551.256C481.191 587.432 407.245 546.264 368.321 582.236C329.178 618.412 289.741 654.859 250.817 690.831C211.674 727.007 220.758 679.784 181.834 715.756C142.691 751.932 186.758 697.784 147.834 733.756C108.691 769.932 166.929 668.167 147.835 685.814L94.8346 752.256L94.8348 690.831Z" fill="#1E293B"/>
<path d="M35.2092 711.212L-3.29088 754.138C20.1129 740.27 -46.0827 737.981 -3.29081 706.195C39.4499 673.912 -73.83 738.275 -31.3096 706.195C11.7027 674.206 -146.42 640.986 -100.031 613.092C-53.4215 584.995 -334.017 60.5355 -280.366 40.5C-226.765 19.9672 -364 -23.9146 -305 13.6704C-56.9999 171.655 177.873 278.752 217 243C255.94 206.604 1116.5 123.5 1198 96C1279.5 68.5 1375.03 30.2232 1381.37 -41C1387.94 -112.427 1455.47 -28.2778 1314.47 -173.329L1299.47 -137.83L1284.97 13.6704L1381.37 185.522C1361.84 203.576 1420.3 -76.972 1381.37 -41C1415.87 69.23 1186.42 416.028 1147.5 452C1108.36 488.176 846.632 547.165 807.709 583.137C768.565 619.313 499.632 535.665 460.709 571.637C421.566 607.813 347.619 566.646 308.696 602.618C269.552 638.793 230.115 675.24 191.192 711.212C152.048 747.388 161.132 700.166 122.209 736.138C83.0653 772.313 127.132 718.166 88.2089 754.138C49.0653 790.313 107.303 688.549 88.209 706.195L35.209 772.638L35.2092 711.212Z" fill="#1C2C4F"/>
<path d="M134.807 824.193L96.3071 867.119C119.711 853.251 53.5153 850.962 96.3072 819.176C139.048 786.893 25.768 851.256 68.2884 819.176C111.301 787.187 -274.582 680.848 -228.193 652.955C-181.583 624.857 -112.151 373.037 -58.5 353.001C-4.89978 332.469 225.006 544.531 245.808 488.95C267.101 433.46 534.681 567.37 573.808 531.618C612.748 495.222 555.253 490.108 590.308 449.95C625.854 409.882 1101.66 369.727 1108 298.504C1114.57 227.077 1472.5 74.5516 1331.5 -70.5001L1313.31 -48.5505L1294.81 127.24L1313.31 202.24C1293.77 220.294 1273.73 245.248 1234.81 281.22C1269.31 391.45 1015.13 495.646 976.206 531.618C937.063 567.794 946.231 660.146 907.307 696.118C868.164 732.294 599.231 648.646 560.307 684.618C521.164 720.794 447.217 679.627 408.294 715.599C369.15 751.774 329.713 788.221 290.79 824.193C251.646 860.369 260.73 813.146 221.807 849.118C182.663 885.294 226.73 831.147 187.807 867.118C148.663 903.294 206.901 801.529 187.807 819.176L134.807 885.619L134.807 824.193Z" fill="#1E293B"/>
<path d="M168.499 820.747L129.999 863.672C153.403 849.804 87.2075 847.515 129.999 815.73C172.74 783.446 59.4602 847.809 101.981 815.73C144.993 783.74 -240.89 677.402 -194.501 649.508C-147.891 621.411 -107.152 423.539 -53.5001 403.504C0.100075 382.971 258.698 541.084 279.5 485.504C300.793 430.014 568.373 563.923 607.5 528.172C646.44 491.776 588.945 486.662 624 446.504C659.546 406.436 1094.66 389.227 1101 318.004C1107.57 246.577 1362.5 226 1322 -55.5001L1303.5 -38.4987L1328.5 123.794L1347 198.794C1327.46 216.848 1307.42 241.802 1268.5 277.774C1303 388.004 1048.82 492.2 1009.9 528.172C970.755 564.347 979.923 656.7 941 692.672C901.856 728.847 632.923 645.2 594 681.172C554.856 717.347 480.909 676.18 441.986 712.152C402.843 748.328 363.405 784.775 324.482 820.747C285.338 856.922 294.422 809.7 255.499 845.672C216.356 881.848 260.422 827.7 221.499 863.672C182.356 899.848 240.594 798.083 221.499 815.73L168.499 882.172L168.499 820.747Z" fill="#133A5B"/>
<path d="M324.499 870.957L285.999 913.882C309.403 900.014 243.208 897.725 285.999 865.94C328.74 833.656 215.46 898.019 257.981 865.94C300.993 833.95 -84.8897 727.612 -38.5006 699.718C8.10886 671.621 -12.1514 678.69 41.5 658.654C95.1002 638.121 189.198 656.463 210 600.882C231.293 545.392 724.373 614.133 763.5 578.382C802.44 541.986 970.445 507.662 1005.5 467.504C1041.05 427.436 1193.16 399.207 1199.5 327.984C1206.07 256.557 1407 87.4995 1352.5 -53.0001L1381.5 -5.00011L1484.5 174.004L1503 249.004C1483.46 267.058 1463.42 292.012 1424.5 327.984C1385.36 364.159 1204.82 542.41 1165.9 578.382C1126.75 614.557 1135.92 706.91 1097 742.882C1057.86 779.057 788.923 695.41 750 731.382C710.856 767.557 636.91 726.39 597.986 762.362C558.843 798.538 519.405 834.985 480.482 870.957C441.339 907.132 450.423 859.91 411.499 895.882C372.356 932.058 416.423 877.91 377.499 913.882C338.356 950.058 396.594 848.293 377.499 865.94L324.499 932.382L324.499 870.957Z" fill="#90CDF4"/>
<path d="M514.499 896.805L475.999 939.731C499.403 925.863 433.208 923.574 475.999 891.788C518.74 859.505 405.46 923.868 447.981 891.788C490.993 859.799 105.11 753.46 151.499 725.567C198.109 697.47 177.849 704.538 231.5 684.503C285.1 663.97 379.198 682.311 400 626.731C421.293 571.241 914.373 639.982 953.5 604.231C992.44 567.835 1028.45 506.161 1063.5 466.003C1099.05 425.935 1226.26 414.556 1232.6 343.333C1239.17 271.906 1327.91 59.6465 1347 41.9999L1394.5 24.5028L1375.51 245.238L1355.9 263.36C1336.36 281.414 1296.93 317.861 1258 353.833C1218.86 390.008 1394.82 568.259 1355.9 604.231C1316.75 640.406 1325.92 732.759 1287 768.731C1247.86 804.906 978.923 721.259 940 757.231C900.856 793.406 826.91 752.239 787.986 788.211C748.843 824.387 709.405 860.834 670.482 896.806C631.339 932.981 640.423 885.759 601.499 921.731C562.356 957.906 606.423 903.759 567.499 939.731C528.356 975.907 586.594 874.142 567.499 891.788L514.499 958.231L514.499 896.805Z" fill="#1E293B"/>
<path d="M641 886.077L602.5 929.003C625.903 915.135 559.708 912.846 602.5 881.06C645.24 848.777 531.961 913.14 574.481 881.06C617.493 849.071 231.611 742.732 278 714.839C324.609 686.741 393.348 636.038 447 616.003C500.6 595.47 673.198 694.583 694 639.003C715.293 583.512 1008.87 565.254 1048 529.503C1086.94 493.107 1170.38 425.247 1205.44 385.089C1240.99 345.021 1276.15 275.226 1282.5 204.003C1289.06 132.576 1394.41 173.149 1413.5 155.503L1306.54 23.0023L1502.01 234.51L1482.4 252.631C1462.86 270.685 1423.43 307.132 1384.5 343.104C1345.36 379.28 1521.32 557.53 1482.4 593.502C1443.26 629.678 1452.42 722.03 1413.5 758.002C1374.36 794.178 1105.42 710.53 1066.5 746.502C1027.36 782.678 953.41 741.511 914.487 777.483C875.343 813.658 835.906 850.105 796.982 886.077C757.839 922.253 766.923 875.031 728 911.003C688.856 947.178 732.923 893.031 694 929.003C654.856 965.178 713.094 863.413 694 881.06L641 947.503L641 886.077Z" fill="#111827"/>
</g>
<defs>
<clipPath id="clip0_61_2884">
<rect width="1280" height="720" fill="white"/>
</clipPath>
</defs>
</svg>
